<svg xmlns="http://www.w3.org/2000/svg" version="1.1" xmlns:xlink="http://www.w3.org/1999/xlink" xmlns:svgjs="http://svgjs.com/svgjs" width="1440" height="560" preserveAspectRatio="none" viewBox="0 0 1440 560"><g mask="url(&quot;#SvgjsMask1018&quot;)" fill="none"><path d="M608.32 590.77C738.2 590.06 847.92 480.44 1115.01 475.99 1382.1 471.54 1483.29 256.91 1621.7 251.99" stroke="rgba(223, 8, 36, 0.58)" stroke-width="2"></path><path d="M413.5 619.91C522.92 604.01 466.74 362.05 760.4 345.59 1054.06 329.13 1267.74 76.11 1454.2 71.19" stroke="rgba(223, 8, 36, 0.58)" stroke-width="2"></path><path d="M744.08 589.53C855.92 534.43 803.3 172.63 1014.14 170.29 1224.99 167.95 1411.58 352.56 1554.27 355.09" stroke="rgba(223, 8, 36, 0.58)" stroke-width="2"></path><path d="M284.34 632.5C396.44 629.82 492.69 472.82 703.44 472.69 914.19 472.56 912.99 542.69 1122.55 542.69 1332.1 542.69 1435.42 472.93 1541.65 472.69" stroke="rgba(223, 8, 36, 0.58)" stroke-width="2"></path><path d="M401.12 575.4C542.54 514.37 479.13 74.21 755.32 71.28 1031.5 68.35 1279.59 270.93 1463.71 272.88" stroke="rgba(223, 8, 36, 0.58)" stroke-width="2"></path></g><defs><mask id="SvgjsMask1018"><rect width="1440" height="560" fill="#ffffff"></rect></mask></defs></svg>