<svg xmlns="http://www.w3.org/2000/svg" version="1.1" xmlns:xlink="http://www.w3.org/1999/xlink" xmlns:svgjs="http://svgjs.com/svgjs" width="1440" height="560" preserveAspectRatio="none" viewBox="0 0 1440 560"><g mask="url(&quot;#SvgjsMask1199&quot;)" fill="none"><path d="M57.73 -43.57L122.68 -6.07L122.68 68.93L57.73 106.43L-7.22 68.93L-7.22 -6.07zM122.68 518.93L187.64 556.43L187.64 631.43L122.68 668.93L57.73 631.43L57.73 556.43zM382.5 68.93L447.45 106.43L447.45 181.43L382.5 218.93L317.55 181.43L317.55 106.43zM382.5 293.93L447.45 331.43L447.45 406.43L382.5 443.93L317.55 406.43L317.55 331.43zM382.5 518.93L447.45 556.43L447.45 631.43L382.5 668.93L317.55 631.43L317.55 556.43zM512.41 293.93L577.36 331.43L577.36 406.43L512.41 443.93L447.45 406.43L447.45 331.43zM447.45 406.43L512.41 443.93L512.41 518.93L447.45 556.43L382.5 518.93L382.5 443.93zM512.41 518.93L577.36 556.43L577.36 631.43L512.41 668.93L447.45 631.43L447.45 556.43zM577.36 -43.57L642.31 -6.07L642.31 68.93L577.36 106.43L512.41 68.93L512.41 -6.07zM642.31 68.93L707.27 106.43L707.27 181.43L642.31 218.93L577.36 181.43L577.36 106.43zM642.31 518.93L707.27 556.43L707.27 631.43L642.31 668.93L577.36 631.43L577.36 556.43zM707.27 -43.57L772.22 -6.07L772.22 68.93L707.27 106.43L642.31 68.93L642.31 -6.07zM772.22 68.93L837.18 106.43L837.18 181.43L772.22 218.93L707.27 181.43L707.27 106.43zM837.17 406.43L902.13 443.93L902.13 518.93L837.17 556.43L772.22 518.93L772.22 443.93zM1032.04 68.93L1096.99 106.43L1096.99 181.43L1032.04 218.93L967.08 181.43L967.08 106.43zM967.08 181.43L1032.04 218.93L1032.04 293.93L967.08 331.43L902.13 293.93L902.13 218.93zM967.08 406.43L1032.04 443.93L1032.04 518.93L967.08 556.43L902.13 518.93L902.13 443.93zM1161.94 68.93L1226.9 106.43L1226.9 181.43L1161.94 218.93L1096.99 181.43L1096.99 106.43zM1161.94 518.93L1226.9 556.43L1226.9 631.43L1161.94 668.93L1096.99 631.43L1096.99 556.43zM1291.85 293.93L1356.8 331.43L1356.8 406.43L1291.85 443.93L1226.9 406.43L1226.9 331.43zM1356.81 406.43L1421.76 443.93L1421.76 518.93L1356.81 556.43L1291.85 518.93L1291.85 443.93zM1486.71 181.43L1551.67 218.93L1551.67 293.93L1486.71 331.43L1421.76 293.93L1421.76 218.93z" stroke="rgba(5, 43, 161, 0.64)" stroke-width="2"></path><path d="M50.23 -43.57 a7.5 7.5 0 1 0 15 0 a7.5 7.5 0 1 0 -15 0zM115.18 -6.07 a7.5 7.5 0 1 0 15 0 a7.5 7.5 0 1 0 -15 0zM115.18 68.93 a7.5 7.5 0 1 0 15 0 a7.5 7.5 0 1 0 -15 0zM50.23 106.43 a7.5 7.5 0 1 0 15 0 a7.5 7.5 0 1 0 -15 0zM-14.72 68.93 a7.5 7.5 0 1 0 15 0 a7.5 7.5 0 1 0 -15 0zM-14.72 -6.07 a7.5 7.5 0 1 0 15 0 a7.5 7.5 0 1 0 -15 0zM115.18 518.93 a7.5 7.5 0 1 0 15 0 a7.5 7.5 0 1 0 -15 0zM180.14 556.43 a7.5 7.5 0 1 0 15 0 a7.5 7.5 0 1 0 -15 0zM180.14 631.43 a7.5 7.5 0 1 0 15 0 a7.5 7.5 0 1 0 -15 0zM115.18 668.93 a7.5 7.5 0 1 0 15 0 a7.5 7.5 0 1 0 -15 0zM50.23 631.43 a7.5 7.5 0 1 0 15 0 a7.5 7.5 0 1 0 -15 0zM50.23 556.43 a7.5 7.5 0 1 0 15 0 a7.5 7.5 0 1 0 -15 0zM375 68.93 a7.5 7.5 0 1 0 15 0 a7.5 7.5 0 1 0 -15 0zM439.95 106.43 a7.5 7.5 0 1 0 15 0 a7.5 7.5 0 1 0 -15 0zM439.95 181.43 a7.5 7.5 0 1 0 15 0 a7.5 7.5 0 1 0 -15 0zM375 218.93 a7.5 7.5 0 1 0 15 0 a7.5 7.5 0 1 0 -15 0zM310.05 181.43 a7.5 7.5 0 1 0 15 0 a7.5 7.5 0 1 0 -15 0zM310.05 106.43 a7.5 7.5 0 1 0 15 0 a7.5 7.5 0 1 0 -15 0zM375 293.93 a7.5 7.5 0 1 0 15 0 a7.5 7.5 0 1 0 -15 0zM439.95 331.43 a7.5 7.5 0 1 0 15 0 a7.5 7.5 0 1 0 -15 0zM439.95 406.43 a7.5 7.5 0 1 0 15 0 a7.5 7.5 0 1 0 -15 0zM375 443.93 a7.5 7.5 0 1 0 15 0 a7.5 7.5 0 1 0 -15 0zM310.05 406.43 a7.5 7.5 0 1 0 15 0 a7.5 7.5 0 1 0 -15 0zM310.05 331.43 a7.5 7.5 0 1 0 15 0 a7.5 7.5 0 1 0 -15 0zM375 518.93 a7.5 7.5 0 1 0 15 0 a7.5 7.5 0 1 0 -15 0zM439.95 556.43 a7.5 7.5 0 1 0 15 0 a7.5 7.5 0 1 0 -15 0zM439.95 631.43 a7.5 7.5 0 1 0 15 0 a7.5 7.5 0 1 0 -15 0zM375 668.93 a7.5 7.5 0 1 0 15 0 a7.5 7.5 0 1 0 -15 0zM310.05 631.43 a7.5 7.5 0 1 0 15 0 a7.5 7.5 0 1 0 -15 0zM310.05 556.43 a7.5 7.5 0 1 0 15 0 a7.5 7.5 0 1 0 -15 0zM504.91 293.93 a7.5 7.5 0 1 0 15 0 a7.5 7.5 0 1 0 -15 0zM569.86 331.43 a7.5 7.5 0 1 0 15 0 a7.5 7.5 0 1 0 -15 0zM569.86 406.43 a7.5 7.5 0 1 0 15 0 a7.5 7.5 0 1 0 -15 0zM504.91 443.93 a7.5 7.5 0 1 0 15 0 a7.5 7.5 0 1 0 -15 0zM504.91 518.93 a7.5 7.5 0 1 0 15 0 a7.5 7.5 0 1 0 -15 0zM569.86 556.43 a7.5 7.5 0 1 0 15 0 a7.5 7.5 0 1 0 -15 0zM569.86 631.43 a7.5 7.5 0 1 0 15 0 a7.5 7.5 0 1 0 -15 0zM504.91 668.93 a7.5 7.5 0 1 0 15 0 a7.5 7.5 0 1 0 -15 0zM569.86 -43.57 a7.5 7.5 0 1 0 15 0 a7.5 7.5 0 1 0 -15 0zM634.81 -6.07 a7.5 7.5 0 1 0 15 0 a7.5 7.5 0 1 0 -15 0zM634.81 68.93 a7.5 7.5 0 1 0 15 0 a7.5 7.5 0 1 0 -15 0zM569.86 106.43 a7.5 7.5 0 1 0 15 0 a7.5 7.5 0 1 0 -15 0zM504.91 68.93 a7.5 7.5 0 1 0 15 0 a7.5 7.5 0 1 0 -15 0zM504.91 -6.07 a7.5 7.5 0 1 0 15 0 a7.5 7.5 0 1 0 -15 0zM699.77 106.43 a7.5 7.5 0 1 0 15 0 a7.5 7.5 0 1 0 -15 0zM699.77 181.43 a7.5 7.5 0 1 0 15 0 a7.5 7.5 0 1 0 -15 0zM634.81 218.93 a7.5 7.5 0 1 0 15 0 a7.5 7.5 0 1 0 -15 0zM569.86 181.43 a7.5 7.5 0 1 0 15 0 a7.5 7.5 0 1 0 -15 0zM634.81 518.93 a7.5 7.5 0 1 0 15 0 a7.5 7.5 0 1 0 -15 0zM699.77 556.43 a7.5 7.5 0 1 0 15 0 a7.5 7.5 0 1 0 -15 0zM699.77 631.43 a7.5 7.5 0 1 0 15 0 a7.5 7.5 0 1 0 -15 0zM634.81 668.93 a7.5 7.5 0 1 0 15 0 a7.5 7.5 0 1 0 -15 0zM699.77 -43.57 a7.5 7.5 0 1 0 15 0 a7.5 7.5 0 1 0 -15 0zM764.72 -6.07 a7.5 7.5 0 1 0 15 0 a7.5 7.5 0 1 0 -15 0zM764.72 68.93 a7.5 7.5 0 1 0 15 0 a7.5 7.5 0 1 0 -15 0zM829.68 106.43 a7.5 7.5 0 1 0 15 0 a7.5 7.5 0 1 0 -15 0zM829.68 181.43 a7.5 7.5 0 1 0 15 0 a7.5 7.5 0 1 0 -15 0zM764.72 218.93 a7.5 7.5 0 1 0 15 0 a7.5 7.5 0 1 0 -15 0zM829.67 406.43 a7.5 7.5 0 1 0 15 0 a7.5 7.5 0 1 0 -15 0zM894.63 443.93 a7.5 7.5 0 1 0 15 0 a7.5 7.5 0 1 0 -15 0zM894.63 518.93 a7.5 7.5 0 1 0 15 0 a7.5 7.5 0 1 0 -15 0zM829.67 556.43 a7.5 7.5 0 1 0 15 0 a7.5 7.5 0 1 0 -15 0zM764.72 518.93 a7.5 7.5 0 1 0 15 0 a7.5 7.5 0 1 0 -15 0zM764.72 443.93 a7.5 7.5 0 1 0 15 0 a7.5 7.5 0 1 0 -15 0zM1024.54 68.93 a7.5 7.5 0 1 0 15 0 a7.5 7.5 0 1 0 -15 0zM1089.49 106.43 a7.5 7.5 0 1 0 15 0 a7.5 7.5 0 1 0 -15 0zM1089.49 181.43 a7.5 7.5 0 1 0 15 0 a7.5 7.5 0 1 0 -15 0zM1024.54 218.93 a7.5 7.5 0 1 0 15 0 a7.5 7.5 0 1 0 -15 0zM959.58 181.43 a7.5 7.5 0 1 0 15 0 a7.5 7.5 0 1 0 -15 0zM959.58 106.43 a7.5 7.5 0 1 0 15 0 a7.5 7.5 0 1 0 -15 0zM1024.54 293.93 a7.5 7.5 0 1 0 15 0 a7.5 7.5 0 1 0 -15 0zM959.58 331.43 a7.5 7.5 0 1 0 15 0 a7.5 7.5 0 1 0 -15 0zM894.63 293.93 a7.5 7.5 0 1 0 15 0 a7.5 7.5 0 1 0 -15 0zM894.63 218.93 a7.5 7.5 0 1 0 15 0 a7.5 7.5 0 1 0 -15 0zM959.58 406.43 a7.5 7.5 0 1 0 15 0 a7.5 7.5 0 1 0 -15 0zM1024.54 443.93 a7.5 7.5 0 1 0 15 0 a7.5 7.5 0 1 0 -15 0zM1024.54 518.93 a7.5 7.5 0 1 0 15 0 a7.5 7.5 0 1 0 -15 0zM959.58 556.43 a7.5 7.5 0 1 0 15 0 a7.5 7.5 0 1 0 -15 0zM1154.44 68.93 a7.5 7.5 0 1 0 15 0 a7.5 7.5 0 1 0 -15 0zM1219.4 106.43 a7.5 7.5 0 1 0 15 0 a7.5 7.5 0 1 0 -15 0zM1219.4 181.43 a7.5 7.5 0 1 0 15 0 a7.5 7.5 0 1 0 -15 0zM1154.44 218.93 a7.5 7.5 0 1 0 15 0 a7.5 7.5 0 1 0 -15 0zM1154.44 518.93 a7.5 7.5 0 1 0 15 0 a7.5 7.5 0 1 0 -15 0zM1219.4 556.43 a7.5 7.5 0 1 0 15 0 a7.5 7.5 0 1 0 -15 0zM1219.4 631.43 a7.5 7.5 0 1 0 15 0 a7.5 7.5 0 1 0 -15 0zM1154.44 668.93 a7.5 7.5 0 1 0 15 0 a7.5 7.5 0 1 0 -15 0zM1089.49 631.43 a7.5 7.5 0 1 0 15 0 a7.5 7.5 0 1 0 -15 0zM1089.49 556.43 a7.5 7.5 0 1 0 15 0 a7.5 7.5 0 1 0 -15 0zM1284.35 293.93 a7.5 7.5 0 1 0 15 0 a7.5 7.5 0 1 0 -15 0zM1349.3 331.43 a7.5 7.5 0 1 0 15 0 a7.5 7.5 0 1 0 -15 0zM1349.3 406.43 a7.5 7.5 0 1 0 15 0 a7.5 7.5 0 1 0 -15 0zM1284.35 443.93 a7.5 7.5 0 1 0 15 0 a7.5 7.5 0 1 0 -15 0zM1219.4 406.43 a7.5 7.5 0 1 0 15 0 a7.5 7.5 0 1 0 -15 0zM1219.4 331.43 a7.5 7.5 0 1 0 15 0 a7.5 7.5 0 1 0 -15 0zM1349.31 406.43 a7.5 7.5 0 1 0 15 0 a7.5 7.5 0 1 0 -15 0zM1414.26 443.93 a7.5 7.5 0 1 0 15 0 a7.5 7.5 0 1 0 -15 0zM1414.26 518.93 a7.5 7.5 0 1 0 15 0 a7.5 7.5 0 1 0 -15 0zM1349.31 556.43 a7.5 7.5 0 1 0 15 0 a7.5 7.5 0 1 0 -15 0zM1284.35 518.93 a7.5 7.5 0 1 0 15 0 a7.5 7.5 0 1 0 -15 0zM1479.21 181.43 a7.5 7.5 0 1 0 15 0 a7.5 7.5 0 1 0 -15 0zM1544.17 218.93 a7.5 7.5 0 1 0 15 0 a7.5 7.5 0 1 0 -15 0zM1544.17 293.93 a7.5 7.5 0 1 0 15 0 a7.5 7.5 0 1 0 -15 0zM1479.21 331.43 a7.5 7.5 0 1 0 15 0 a7.5 7.5 0 1 0 -15 0zM1414.26 293.93 a7.5 7.5 0 1 0 15 0 a7.5 7.5 0 1 0 -15 0zM1414.26 218.93 a7.5 7.5 0 1 0 15 0 a7.5 7.5 0 1 0 -15 0z" fill="rgba(5, 43, 161, 0.64)"></path><path d="M21.36 -23.64L113.16 29.36L113.16 135.36L21.36 188.36L-70.44 135.36L-70.44 29.36zM113.16 453.36L204.96 506.36L204.96 612.36L113.16 665.36L21.36 612.36L21.36 506.36zM204.96 -23.64L296.76 29.36L296.76 135.36L204.96 188.36L113.16 135.36L113.16 29.36zM296.76 453.36L388.57 506.36L388.57 612.36L296.76 665.36L204.96 612.36L204.96 506.36zM480.37 135.36L572.17 188.36L572.17 294.36L480.37 347.36L388.57 294.36L388.57 188.36zM388.57 294.36L480.37 347.36L480.37 453.36L388.57 506.36L296.76 453.36L296.76 347.36zM480.37 453.36L572.17 506.36L572.17 612.36L480.37 665.36L388.57 612.36L388.57 506.36zM572.17 -23.64L663.97 29.36L663.97 135.36L572.17 188.36L480.37 135.36L480.37 29.36zM663.97 135.36L755.77 188.36L755.77 294.36L663.97 347.36L572.17 294.36L572.17 188.36zM847.57 453.36L939.37 506.36L939.37 612.36L847.57 665.36L755.77 612.36L755.77 506.36zM755.77 612.36L847.57 665.36L847.57 771.36L755.77 824.36L663.97 771.36L663.97 665.36zM1031.17 135.36L1122.98 188.36L1122.98 294.36L1031.17 347.36L939.37 294.36L939.37 188.36zM939.37 294.36L1031.17 347.36L1031.17 453.36L939.37 506.36L847.57 453.36L847.57 347.36zM939.37 612.36L1031.17 665.36L1031.17 771.36L939.37 824.36L847.57 771.36L847.57 665.36zM1214.78 135.36L1306.58 188.36L1306.58 294.36L1214.78 347.36L1122.98 294.36L1122.98 188.36zM1214.78 453.36L1306.58 506.36L1306.58 612.36L1214.78 665.36L1122.98 612.36L1122.98 506.36zM1306.58 -23.64L1398.38 29.36L1398.38 135.36L1306.58 188.36L1214.78 135.36L1214.78 29.36zM1398.38 135.36L1490.18 188.36L1490.18 294.36L1398.38 347.36L1306.58 294.36L1306.58 188.36zM1306.58 294.36L1398.38 347.36L1398.38 453.36L1306.58 506.36L1214.78 453.36L1214.78 347.36zM1398.38 453.36L1490.18 506.36L1490.18 612.36L1398.38 665.36L1306.58 612.36L1306.58 506.36z" stroke="rgba(217, 1, 1, 0.58)" stroke-width="2"></path></g><defs><mask id="SvgjsMask1199"><rect width="1440" height="560" fill="#ffffff"></rect></mask></defs></svg>