<svg xmlns="http://www.w3.org/2000/svg" version="1.1" xmlns:xlink="http://www.w3.org/1999/xlink" xmlns:svgjs="http://svgjs.com/svgjs" width="1440" height="560" preserveAspectRatio="none" viewBox="0 0 1440 560"><g mask="url(&quot;#SvgjsMask1014&quot;)" fill="none"><path d="M-61.16 359.5L-61.16 359.5" stroke="rgba(173, 17, 60, 1)" stroke-width="1.5"></path><path d="M-61.16 359.5L44.45 387.68" stroke="rgba(173, 17, 60, 1)" stroke-width="1.5"></path><path d="M-61.16 359.5L-59.6 536.66" stroke="rgba(173, 17, 60, 1)" stroke-width="1.5"></path><path d="M-59.6 536.66L-59.6 536.66" stroke="rgba(173, 17, 60, 1)" stroke-width="1.5"></path><path d="M-59.6 536.66L-103.9 683.8" stroke="rgba(173, 17, 60, 1)" stroke-width="1.5"></path><path d="M-59.6 536.66L66.69 641.02" stroke="rgba(173, 17, 60, 1)" stroke-width="1.5"></path><path d="M-59.6 536.66L110.66 523.71" stroke="rgba(173, 17, 60, 1)" stroke-width="1.5"></path><path d="M-59.6 536.66L44.45 387.68" stroke="rgba(173, 17, 60, 1)" stroke-width="1.5"></path><path d="M-103.9 683.8L-103.9 683.8" stroke="rgba(173, 17, 60, 1)" stroke-width="1.5"></path><path d="M-103.9 683.8L66.69 641.02" stroke="rgba(173, 17, 60, 1)" stroke-width="1.5"></path><path d="M-103.9 683.8L110.66 523.71" stroke="rgba(173, 17, 60, 1)" stroke-width="1.5"></path><path d="M-103.9 683.8L-61.16 359.5" stroke="rgba(173, 17, 60, 1)" stroke-width="1.5"></path><path d="M-103.9 683.8L44.45 387.68" stroke="rgba(173, 17, 60, 1)" stroke-width="1.5"></path><path d="M44.45 387.68L44.45 387.68" stroke="rgba(173, 17, 60, 1)" stroke-width="1.5"></path><path d="M44.45 387.68L110.66 523.71" stroke="rgba(173, 17, 60, 1)" stroke-width="1.5"></path><path d="M44.45 387.68L228.19 397" stroke="rgba(173, 17, 60, 1)" stroke-width="1.5"></path><path d="M44.45 387.68L241.13 538.73" stroke="rgba(173, 17, 60, 1)" stroke-width="1.5"></path><path d="M110.66 523.71L110.66 523.71" stroke="rgba(173, 17, 60, 1)" stroke-width="1.5"></path><path d="M110.66 523.71L66.69 641.02" stroke="rgba(173, 17, 60, 1)" stroke-width="1.5"></path><path d="M110.66 523.71L241.13 538.73" stroke="rgba(173, 17, 60, 1)" stroke-width="1.5"></path><path d="M110.66 523.71L228.19 397" stroke="rgba(173, 17, 60, 1)" stroke-width="1.5"></path><path d="M66.69 641.02L66.69 641.02" stroke="rgba(173, 17, 60, 1)" stroke-width="1.5"></path><path d="M66.69 641.02L241.13 538.73" stroke="rgba(173, 17, 60, 1)" stroke-width="1.5"></path><path d="M228.19 397L228.19 397" stroke="rgba(173, 17, 60, 1)" stroke-width="1.5"></path><path d="M228.19 397L364.1 411.03" stroke="rgba(173, 17, 60, 1)" stroke-width="1.5"></path><path d="M228.19 397L241.13 538.73" stroke="rgba(173, 17, 60, 1)" stroke-width="1.5"></path><path d="M241.13 538.73L241.13 538.73" stroke="rgba(173, 17, 60, 1)" stroke-width="1.5"></path><path d="M241.13 538.73L386.12 516.12" stroke="rgba(173, 17, 60, 1)" stroke-width="1.5"></path><path d="M241.13 538.73L364.1 411.03" stroke="rgba(173, 17, 60, 1)" stroke-width="1.5"></path><path d="M364.1 411.03L364.1 411.03" stroke="rgba(173, 17, 60, 1)" stroke-width="1.5"></path><path d="M364.1 411.03L386.12 516.12" stroke="rgba(173, 17, 60, 1)" stroke-width="1.5"></path><path d="M386.12 516.12L386.12 516.12" stroke="rgba(173, 17, 60, 1)" stroke-width="1.5"></path><path d="M386.12 516.12L377.09 681.85" stroke="rgba(173, 17, 60, 1)" stroke-width="1.5"></path><path d="M386.12 516.12L557.67 530.69" stroke="rgba(173, 17, 60, 1)" stroke-width="1.5"></path><path d="M386.12 516.12L228.19 397" stroke="rgba(173, 17, 60, 1)" stroke-width="1.5"></path><path d="M377.09 681.85L377.09 681.85" stroke="rgba(173, 17, 60, 1)" stroke-width="1.5"></path><path d="M377.09 681.85L556.32 700.09" stroke="rgba(173, 17, 60, 1)" stroke-width="1.5"></path><path d="M549.62 357.72L549.62 357.72" stroke="rgba(173, 17, 60, 1)" stroke-width="1.5"></path><path d="M549.62 357.72L638.4 337.62" stroke="rgba(173, 17, 60, 1)" stroke-width="1.5"></path><path d="M549.62 357.72L557.67 530.69" stroke="rgba(173, 17, 60, 1)" stroke-width="1.5"></path><path d="M549.62 357.72L703.23 242.03" stroke="rgba(173, 17, 60, 1)" stroke-width="1.5"></path><path d="M557.67 530.69L557.67 530.69" stroke="rgba(173, 17, 60, 1)" stroke-width="1.5"></path><path d="M557.67 530.69L658.4 550.7" stroke="rgba(173, 17, 60, 1)" stroke-width="1.5"></path><path d="M557.67 530.69L641.64 667.9" stroke="rgba(173, 17, 60, 1)" stroke-width="1.5"></path><path d="M557.67 530.69L556.32 700.09" stroke="rgba(173, 17, 60, 1)" stroke-width="1.5"></path><path d="M556.32 700.09L556.32 700.09" stroke="rgba(173, 17, 60, 1)" stroke-width="1.5"></path><path d="M556.32 700.09L641.64 667.9" stroke="rgba(173, 17, 60, 1)" stroke-width="1.5"></path><path d="M703.23 242.03L703.23 242.03" stroke="rgba(173, 17, 60, 1)" stroke-width="1.5"></path><path d="M703.23 242.03L638.4 337.62" stroke="rgba(173, 17, 60, 1)" stroke-width="1.5"></path><path d="M703.23 242.03L846.49 228.36" stroke="rgba(173, 17, 60, 1)" stroke-width="1.5"></path><path d="M703.23 242.03L824.69 395.26" stroke="rgba(173, 17, 60, 1)" stroke-width="1.5"></path><path d="M703.23 242.03L788.12 490.22" stroke="rgba(173, 17, 60, 1)" stroke-width="1.5"></path><path d="M638.4 337.62L638.4 337.62" stroke="rgba(173, 17, 60, 1)" stroke-width="1.5"></path><path d="M638.4 337.62L824.69 395.26" stroke="rgba(173, 17, 60, 1)" stroke-width="1.5"></path><path d="M658.4 550.7L658.4 550.7" stroke="rgba(173, 17, 60, 1)" stroke-width="1.5"></path><path d="M641.64 667.9L641.64 667.9" stroke="rgba(173, 17, 60, 1)" stroke-width="1.5"></path><path d="M641.64 667.9L658.4 550.7" stroke="rgba(173, 17, 60, 1)" stroke-width="1.5"></path><path d="M846.49 228.36L846.49 228.36" stroke="rgba(173, 17, 60, 1)" stroke-width="1.5"></path><path d="M846.49 228.36L978.17 239.91" stroke="rgba(173, 17, 60, 1)" stroke-width="1.5"></path><path d="M846.49 228.36L824.69 395.26" stroke="rgba(173, 17, 60, 1)" stroke-width="1.5"></path><path d="M846.49 228.36L994.93 381.12" stroke="rgba(173, 17, 60, 1)" stroke-width="1.5"></path><path d="M846.49 228.36L638.4 337.62" stroke="rgba(173, 17, 60, 1)" stroke-width="1.5"></path><path d="M824.69 395.26L824.69 395.26" stroke="rgba(173, 17, 60, 1)" stroke-width="1.5"></path><path d="M824.69 395.26L788.12 490.22" stroke="rgba(173, 17, 60, 1)" stroke-width="1.5"></path><path d="M788.12 490.22L788.12 490.22" stroke="rgba(173, 17, 60, 1)" stroke-width="1.5"></path><path d="M788.12 490.22L658.4 550.7" stroke="rgba(173, 17, 60, 1)" stroke-width="1.5"></path><path d="M788.12 490.22L859.32 678.46" stroke="rgba(173, 17, 60, 1)" stroke-width="1.5"></path><path d="M788.12 490.22L981.97 561.02" stroke="rgba(173, 17, 60, 1)" stroke-width="1.5"></path><path d="M788.12 490.22L638.4 337.62" stroke="rgba(173, 17, 60, 1)" stroke-width="1.5"></path><path d="M859.32 678.46L859.32 678.46" stroke="rgba(173, 17, 60, 1)" stroke-width="1.5"></path><path d="M859.32 678.46L977.39 666.81" stroke="rgba(173, 17, 60, 1)" stroke-width="1.5"></path><path d="M859.32 678.46L981.97 561.02" stroke="rgba(173, 17, 60, 1)" stroke-width="1.5"></path><path d="M859.32 678.46L641.64 667.9" stroke="rgba(173, 17, 60, 1)" stroke-width="1.5"></path><path d="M859.32 678.46L658.4 550.7" stroke="rgba(173, 17, 60, 1)" stroke-width="1.5"></path><path d="M956.75 -60.49L956.75 -60.49" stroke="rgba(173, 17, 60, 1)" stroke-width="1.5"></path><path d="M956.75 -60.49L1003.86 50.33" stroke="rgba(173, 17, 60, 1)" stroke-width="1.5"></path><path d="M1003.86 50.33L1003.86 50.33" stroke="rgba(173, 17, 60, 1)" stroke-width="1.5"></path><path d="M1003.86 50.33L1162.11 72.33" stroke="rgba(173, 17, 60, 1)" stroke-width="1.5"></path><path d="M978.17 239.91L978.17 239.91" stroke="rgba(173, 17, 60, 1)" stroke-width="1.5"></path><path d="M978.17 239.91L994.93 381.12" stroke="rgba(173, 17, 60, 1)" stroke-width="1.5"></path><path d="M994.93 381.12L994.93 381.12" stroke="rgba(173, 17, 60, 1)" stroke-width="1.5"></path><path d="M994.93 381.12L1132.32 367.75" stroke="rgba(173, 17, 60, 1)" stroke-width="1.5"></path><path d="M994.93 381.12L824.69 395.26" stroke="rgba(173, 17, 60, 1)" stroke-width="1.5"></path><path d="M994.93 381.12L981.97 561.02" stroke="rgba(173, 17, 60, 1)" stroke-width="1.5"></path><path d="M981.97 561.02L981.97 561.02" stroke="rgba(173, 17, 60, 1)" stroke-width="1.5"></path><path d="M981.97 561.02L977.39 666.81" stroke="rgba(173, 17, 60, 1)" stroke-width="1.5"></path><path d="M981.97 561.02L1125.53 689.32" stroke="rgba(173, 17, 60, 1)" stroke-width="1.5"></path><path d="M977.39 666.81L977.39 666.81" stroke="rgba(173, 17, 60, 1)" stroke-width="1.5"></path><path d="M977.39 666.81L1125.53 689.32" stroke="rgba(173, 17, 60, 1)" stroke-width="1.5"></path><path d="M977.39 666.81L788.12 490.22" stroke="rgba(173, 17, 60, 1)" stroke-width="1.5"></path><path d="M977.39 666.81L1247.13 677.44" stroke="rgba(173, 17, 60, 1)" stroke-width="1.5"></path><path d="M977.39 666.81L994.93 381.12" stroke="rgba(173, 17, 60, 1)" stroke-width="1.5"></path><path d="M1137.33 -110.73L1137.33 -110.73" stroke="rgba(173, 17, 60, 1)" stroke-width="1.5"></path><path d="M1137.33 -110.73L1272.47 -52.84" stroke="rgba(173, 17, 60, 1)" stroke-width="1.5"></path><path d="M1137.33 -110.73L1162.11 72.33" stroke="rgba(173, 17, 60, 1)" stroke-width="1.5"></path><path d="M1137.33 -110.73L956.75 -60.49" stroke="rgba(173, 17, 60, 1)" stroke-width="1.5"></path><path d="M1162.11 72.33L1162.11 72.33" stroke="rgba(173, 17, 60, 1)" stroke-width="1.5"></path><path d="M1162.11 72.33L1128.35 213.95" stroke="rgba(173, 17, 60, 1)" stroke-width="1.5"></path><path d="M1162.11 72.33L1311.87 57.99" stroke="rgba(173, 17, 60, 1)" stroke-width="1.5"></path><path d="M1128.35 213.95L1128.35 213.95" stroke="rgba(173, 17, 60, 1)" stroke-width="1.5"></path><path d="M1128.35 213.95L1248.43 217.3" stroke="rgba(173, 17, 60, 1)" stroke-width="1.5"></path><path d="M1128.35 213.95L978.17 239.91" stroke="rgba(173, 17, 60, 1)" stroke-width="1.5"></path><path d="M1132.32 367.75L1132.32 367.75" stroke="rgba(173, 17, 60, 1)" stroke-width="1.5"></path><path d="M1132.32 367.75L1128.35 213.95" stroke="rgba(173, 17, 60, 1)" stroke-width="1.5"></path><path d="M1132.32 367.75L1311.62 372.77" stroke="rgba(173, 17, 60, 1)" stroke-width="1.5"></path><path d="M1132.32 367.75L1240.31 511.68" stroke="rgba(173, 17, 60, 1)" stroke-width="1.5"></path><path d="M1132.32 367.75L1248.43 217.3" stroke="rgba(173, 17, 60, 1)" stroke-width="1.5"></path><path d="M1132.32 367.75L978.17 239.91" stroke="rgba(173, 17, 60, 1)" stroke-width="1.5"></path><path d="M1125.53 689.32L1125.53 689.32" stroke="rgba(173, 17, 60, 1)" stroke-width="1.5"></path><path d="M1125.53 689.32L1247.13 677.44" stroke="rgba(173, 17, 60, 1)" stroke-width="1.5"></path><path d="M1272.47 -52.84L1272.47 -52.84" stroke="rgba(173, 17, 60, 1)" stroke-width="1.5"></path><path d="M1272.47 -52.84L1311.87 57.99" stroke="rgba(173, 17, 60, 1)" stroke-width="1.5"></path><path d="M1272.47 -52.84L1428.28 -109.78" stroke="rgba(173, 17, 60, 1)" stroke-width="1.5"></path><path d="M1311.87 57.99L1311.87 57.99" stroke="rgba(173, 17, 60, 1)" stroke-width="1.5"></path><path d="M1311.87 57.99L1442.4 50.22" stroke="rgba(173, 17, 60, 1)" stroke-width="1.5"></path><path d="M1248.43 217.3L1248.43 217.3" stroke="rgba(173, 17, 60, 1)" stroke-width="1.5"></path><path d="M1248.43 217.3L1311.62 372.77" stroke="rgba(173, 17, 60, 1)" stroke-width="1.5"></path><path d="M1311.62 372.77L1311.62 372.77" stroke="rgba(173, 17, 60, 1)" stroke-width="1.5"></path><path d="M1311.62 372.77L1454.11 403.13" stroke="rgba(173, 17, 60, 1)" stroke-width="1.5"></path><path d="M1311.62 372.77L1240.31 511.68" stroke="rgba(173, 17, 60, 1)" stroke-width="1.5"></path><path d="M1311.62 372.77L1392.77 539.61" stroke="rgba(173, 17, 60, 1)" stroke-width="1.5"></path><path d="M1240.31 511.68L1240.31 511.68" stroke="rgba(173, 17, 60, 1)" stroke-width="1.5"></path><path d="M1240.31 511.68L1392.77 539.61" stroke="rgba(173, 17, 60, 1)" stroke-width="1.5"></path><path d="M1240.31 511.68L1247.13 677.44" stroke="rgba(173, 17, 60, 1)" stroke-width="1.5"></path><path d="M1240.31 511.68L1395.77 645.71" stroke="rgba(173, 17, 60, 1)" stroke-width="1.5"></path><path d="M1240.31 511.68L1125.53 689.32" stroke="rgba(173, 17, 60, 1)" stroke-width="1.5"></path><path d="M1247.13 677.44L1247.13 677.44" stroke="rgba(173, 17, 60, 1)" stroke-width="1.5"></path><path d="M1247.13 677.44L1395.77 645.71" stroke="rgba(173, 17, 60, 1)" stroke-width="1.5"></path><path d="M1428.28 -109.78L1428.28 -109.78" stroke="rgba(173, 17, 60, 1)" stroke-width="1.5"></path><path d="M1428.28 -109.78L1538.34 -56.33" stroke="rgba(173, 17, 60, 1)" stroke-width="1.5"></path><path d="M1428.28 -109.78L1442.4 50.22" stroke="rgba(173, 17, 60, 1)" stroke-width="1.5"></path><path d="M1428.28 -109.78L1556.28 41.76" stroke="rgba(173, 17, 60, 1)" stroke-width="1.5"></path><path d="M1428.28 -109.78L1311.87 57.99" stroke="rgba(173, 17, 60, 1)" stroke-width="1.5"></path><path d="M1442.4 50.22L1442.4 50.22" stroke="rgba(173, 17, 60, 1)" stroke-width="1.5"></path><path d="M1442.4 50.22L1556.28 41.76" stroke="rgba(173, 17, 60, 1)" stroke-width="1.5"></path><path d="M1442.4 50.22L1538.34 -56.33" stroke="rgba(173, 17, 60, 1)" stroke-width="1.5"></path><path d="M1442.4 50.22L1431.36 227.23" stroke="rgba(173, 17, 60, 1)" stroke-width="1.5"></path><path d="M1442.4 50.22L1272.47 -52.84" stroke="rgba(173, 17, 60, 1)" stroke-width="1.5"></path><path d="M1431.36 227.23L1431.36 227.23" stroke="rgba(173, 17, 60, 1)" stroke-width="1.5"></path><path d="M1431.36 227.23L1600.72 261" stroke="rgba(173, 17, 60, 1)" stroke-width="1.5"></path><path d="M1431.36 227.23L1561.36 342.78" stroke="rgba(173, 17, 60, 1)" stroke-width="1.5"></path><path d="M1431.36 227.23L1454.11 403.13" stroke="rgba(173, 17, 60, 1)" stroke-width="1.5"></path><path d="M1454.11 403.13L1454.11 403.13" stroke="rgba(173, 17, 60, 1)" stroke-width="1.5"></path><path d="M1454.11 403.13L1561.36 342.78" stroke="rgba(173, 17, 60, 1)" stroke-width="1.5"></path><path d="M1454.11 403.13L1553.49 490.05" stroke="rgba(173, 17, 60, 1)" stroke-width="1.5"></path><path d="M1454.11 403.13L1392.77 539.61" stroke="rgba(173, 17, 60, 1)" stroke-width="1.5"></path><path d="M1392.77 539.61L1392.77 539.61" stroke="rgba(173, 17, 60, 1)" stroke-width="1.5"></path><path d="M1392.77 539.61L1395.77 645.71" stroke="rgba(173, 17, 60, 1)" stroke-width="1.5"></path><path d="M1392.77 539.61L1553.49 490.05" stroke="rgba(173, 17, 60, 1)" stroke-width="1.5"></path><path d="M1395.77 645.71L1395.77 645.71" stroke="rgba(173, 17, 60, 1)" stroke-width="1.5"></path><path d="M1395.77 645.71L1553.49 490.05" stroke="rgba(173, 17, 60, 1)" stroke-width="1.5"></path><path d="M1538.34 -56.33L1538.34 -56.33" stroke="rgba(173, 17, 60, 1)" stroke-width="1.5"></path><path d="M1538.34 -56.33L1556.28 41.76" stroke="rgba(173, 17, 60, 1)" stroke-width="1.5"></path><path d="M1556.28 41.76L1556.28 41.76" stroke="rgba(173, 17, 60, 1)" stroke-width="1.5"></path><path d="M1600.72 261L1600.72 261" stroke="rgba(173, 17, 60, 1)" stroke-width="1.5"></path><path d="M1600.72 261L1561.36 342.78" stroke="rgba(173, 17, 60, 1)" stroke-width="1.5"></path><path d="M1600.72 261L1454.11 403.13" stroke="rgba(173, 17, 60, 1)" stroke-width="1.5"></path><path d="M1600.72 261L1556.28 41.76" stroke="rgba(173, 17, 60, 1)" stroke-width="1.5"></path><path d="M1561.36 342.78L1561.36 342.78" stroke="rgba(173, 17, 60, 1)" stroke-width="1.5"></path><path d="M1561.36 342.78L1553.49 490.05" stroke="rgba(173, 17, 60, 1)" stroke-width="1.5"></path><path d="M1561.36 342.78L1311.62 372.77" stroke="rgba(173, 17, 60, 1)" stroke-width="1.5"></path><path d="M1553.49 490.05L1553.49 490.05" stroke="rgba(173, 17, 60, 1)" stroke-width="1.5"></path><circle r="5" cx="-61.16" cy="359.5" fill="rgba(173, 17, 60, 1)"></circle><circle r="5" cx="-59.6" cy="536.66" fill="rgba(173, 17, 60, 1)"></circle><circle r="5" cx="-103.9" cy="683.8" fill="rgba(173, 17, 60, 1)"></circle><circle r="5" cx="44.45" cy="387.68" fill="rgba(173, 17, 60, 1)"></circle><circle r="5" cx="110.66" cy="523.71" fill="rgba(173, 17, 60, 1)"></circle><circle r="5" cx="66.69" cy="641.02" fill="rgba(173, 17, 60, 1)"></circle><circle r="5" cx="228.19" cy="397" fill="rgba(173, 17, 60, 1)"></circle><circle r="5" cx="241.13" cy="538.73" fill="rgba(173, 17, 60, 1)"></circle><circle r="5" cx="364.1" cy="411.03" fill="rgba(173, 17, 60, 1)"></circle><circle r="5" cx="386.12" cy="516.12" fill="rgba(173, 17, 60, 1)"></circle><circle r="5" cx="377.09" cy="681.85" fill="rgba(173, 17, 60, 1)"></circle><circle r="5" cx="549.62" cy="357.72" fill="rgba(173, 17, 60, 1)"></circle><circle r="5" cx="557.67" cy="530.69" fill="rgba(173, 17, 60, 1)"></circle><circle r="5" cx="556.32" cy="700.09" fill="rgba(173, 17, 60, 1)"></circle><circle r="5" cx="703.23" cy="242.03" fill="rgba(173, 17, 60, 1)"></circle><circle r="5" cx="638.4" cy="337.62" fill="rgba(173, 17, 60, 1)"></circle><circle r="5" cx="658.4" cy="550.7" fill="rgba(173, 17, 60, 1)"></circle><circle r="5" cx="641.64" cy="667.9" fill="rgba(173, 17, 60, 1)"></circle><circle r="5" cx="846.49" cy="228.36" fill="rgba(173, 17, 60, 1)"></circle><circle r="5" cx="824.69" cy="395.26" fill="rgba(173, 17, 60, 1)"></circle><circle r="5" cx="788.12" cy="490.22" fill="rgba(173, 17, 60, 1)"></circle><circle r="5" cx="859.32" cy="678.46" fill="rgba(173, 17, 60, 1)"></circle><circle r="5" cx="956.75" cy="-60.49" fill="rgba(173, 17, 60, 1)"></circle><circle r="5" cx="1003.86" cy="50.33" fill="rgba(173, 17, 60, 1)"></circle><circle r="5" cx="978.17" cy="239.91" fill="rgba(173, 17, 60, 1)"></circle><circle r="5" cx="994.93" cy="381.12" fill="rgba(173, 17, 60, 1)"></circle><circle r="5" cx="981.97" cy="561.02" fill="rgba(173, 17, 60, 1)"></circle><circle r="5" cx="977.39" cy="666.81" fill="rgba(173, 17, 60, 1)"></circle><circle r="5" cx="1137.33" cy="-110.73" fill="rgba(173, 17, 60, 1)"></circle><circle r="5" cx="1162.11" cy="72.33" fill="rgba(173, 17, 60, 1)"></circle><circle r="5" cx="1128.35" cy="213.95" fill="rgba(173, 17, 60, 1)"></circle><circle r="5" cx="1132.32" cy="367.75" fill="rgba(173, 17, 60, 1)"></circle><circle r="5" cx="1125.53" cy="689.32" fill="rgba(173, 17, 60, 1)"></circle><circle r="5" cx="1272.47" cy="-52.84" fill="rgba(173, 17, 60, 1)"></circle><circle r="5" cx="1311.87" cy="57.99" fill="rgba(173, 17, 60, 1)"></circle><circle r="5" cx="1248.43" cy="217.3" fill="rgba(173, 17, 60, 1)"></circle><circle r="5" cx="1311.62" cy="372.77" fill="rgba(173, 17, 60, 1)"></circle><circle r="5" cx="1240.31" cy="511.68" fill="rgba(173, 17, 60, 1)"></circle><circle r="5" cx="1247.13" cy="677.44" fill="rgba(173, 17, 60, 1)"></circle><circle r="5" cx="1428.28" cy="-109.78" fill="rgba(173, 17, 60, 1)"></circle><circle r="5" cx="1442.4" cy="50.22" fill="rgba(173, 17, 60, 1)"></circle><circle r="5" cx="1431.36" cy="227.23" fill="rgba(173, 17, 60, 1)"></circle><circle r="5" cx="1454.11" cy="403.13" fill="rgba(173, 17, 60, 1)"></circle><circle r="5" cx="1392.77" cy="539.61" fill="rgba(173, 17, 60, 1)"></circle><circle r="5" cx="1395.77" cy="645.71" fill="rgba(173, 17, 60, 1)"></circle><circle r="5" cx="1538.34" cy="-56.33" fill="rgba(173, 17, 60, 1)"></circle><circle r="5" cx="1556.28" cy="41.76" fill="rgba(173, 17, 60, 1)"></circle><circle r="5" cx="1600.72" cy="261" fill="rgba(173, 17, 60, 1)"></circle><circle r="5" cx="1561.36" cy="342.78" fill="rgba(173, 17, 60, 1)"></circle><circle r="5" cx="1553.49" cy="490.05" fill="rgba(173, 17, 60, 1)"></circle><path d="M-47.43 689.82L-47.43 689.82" stroke="hsl(228.5, 89.2%, 56.8%)" stroke-width="1.5"></path><path d="M-47.43 689.82L93.17 673.05" stroke="hsl(228.5, 89.2%, 56.8%)" stroke-width="1.5"></path><path d="M-47.43 689.82L94.24 493.46" stroke="hsl(228.5, 89.2%, 56.8%)" stroke-width="1.5"></path><path d="M-47.43 689.82L195.16 548.48" stroke="hsl(228.5, 89.2%, 56.8%)" stroke-width="1.5"></path><path d="M93.17 673.05L93.17 673.05" stroke="hsl(228.5, 89.2%, 56.8%)" stroke-width="1.5"></path><path d="M93.17 673.05L233.41 686.48" stroke="hsl(228.5, 89.2%, 56.8%)" stroke-width="1.5"></path><path d="M93.17 673.05L195.16 548.48" stroke="hsl(228.5, 89.2%, 56.8%)" stroke-width="1.5"></path><path d="M93.17 673.05L94.24 493.46" stroke="hsl(228.5, 89.2%, 56.8%)" stroke-width="1.5"></path><path d="M93.17 673.05L539.97 538.46" stroke="hsl(228.5, 89.2%, 56.8%)" stroke-width="1.5"></path><path d="M195.16 548.48L195.16 548.48" stroke="hsl(228.5, 89.2%, 56.8%)" stroke-width="1.5"></path><path d="M195.16 548.48L94.24 493.46" stroke="hsl(228.5, 89.2%, 56.8%)" stroke-width="1.5"></path><path d="M195.16 548.48L233.41 686.48" stroke="hsl(228.5, 89.2%, 56.8%)" stroke-width="1.5"></path><path d="M813.42 522.32L813.42 522.32" stroke="hsl(228.5, 89.2%, 56.8%)" stroke-width="1.5"></path><path d="M813.42 522.32L700.48 493.06" stroke="hsl(228.5, 89.2%, 56.8%)" stroke-width="1.5"></path><path d="M813.42 522.32L809.59 668.47" stroke="hsl(228.5, 89.2%, 56.8%)" stroke-width="1.5"></path><path d="M813.42 522.32L702.01 640.25" stroke="hsl(228.5, 89.2%, 56.8%)" stroke-width="1.5"></path><path d="M813.42 522.32L977.45 524.94" stroke="hsl(228.5, 89.2%, 56.8%)" stroke-width="1.5"></path><path d="M813.42 522.32L644.26 393.32" stroke="hsl(228.5, 89.2%, 56.8%)" stroke-width="1.5"></path><path d="M1154.05 679.54L1154.05 679.54" stroke="hsl(228.5, 89.2%, 56.8%)" stroke-width="1.5"></path><path d="M1154.05 679.54L1289.87 691.29" stroke="hsl(228.5, 89.2%, 56.8%)" stroke-width="1.5"></path><path d="M1154.05 679.54L1114.59 531.75" stroke="hsl(228.5, 89.2%, 56.8%)" stroke-width="1.5"></path><path d="M1154.05 679.54L1248.02 547.5" stroke="hsl(228.5, 89.2%, 56.8%)" stroke-width="1.5"></path><path d="M1154.05 679.54L964.12 709.25" stroke="hsl(228.5, 89.2%, 56.8%)" stroke-width="1.5"></path><path d="M1262.67 -39.14L1262.67 -39.14" stroke="hsl(228.5, 89.2%, 56.8%)" stroke-width="1.5"></path><path d="M1262.67 -39.14L1258.93 78.59" stroke="hsl(228.5, 89.2%, 56.8%)" stroke-width="1.5"></path><path d="M1262.67 -39.14L1394.64 -66.16" stroke="hsl(228.5, 89.2%, 56.8%)" stroke-width="1.5"></path><path d="M1262.67 -39.14L1124.63 104.37" stroke="hsl(228.5, 89.2%, 56.8%)" stroke-width="1.5"></path><path d="M1410.29 643.12L1410.29 643.12" stroke="hsl(228.5, 89.2%, 56.8%)" stroke-width="1.5"></path><path d="M1410.29 643.12L1289.87 691.29" stroke="hsl(228.5, 89.2%, 56.8%)" stroke-width="1.5"></path><path d="M1410.29 643.12L1393.89 501.36" stroke="hsl(228.5, 89.2%, 56.8%)" stroke-width="1.5"></path><path d="M1410.29 643.12L1562.08 649.19" stroke="hsl(228.5, 89.2%, 56.8%)" stroke-width="1.5"></path><path d="M1410.29 643.12L1248.02 547.5" stroke="hsl(228.5, 89.2%, 56.8%)" stroke-width="1.5"></path><path d="M1410.29 643.12L1563.26 496.09" stroke="hsl(228.5, 89.2%, 56.8%)" stroke-width="1.5"></path><path d="M94.24 493.46L94.24 493.46" stroke="hsl(228.5, 89.2%, 56.8%)" stroke-width="1.5"></path><path d="M233.41 686.48L233.41 686.48" stroke="hsl(228.5, 89.2%, 56.8%)" stroke-width="1.5"></path><path d="M233.41 686.48L94.24 493.46" stroke="hsl(228.5, 89.2%, 56.8%)" stroke-width="1.5"></path><path d="M233.41 686.48L-47.43 689.82" stroke="hsl(228.5, 89.2%, 56.8%)" stroke-width="1.5"></path><path d="M522.98 400.81L522.98 400.81" stroke="hsl(228.5, 89.2%, 56.8%)" stroke-width="1.5"></path><path d="M522.98 400.81L644.26 393.32" stroke="hsl(228.5, 89.2%, 56.8%)" stroke-width="1.5"></path><path d="M522.98 400.81L539.97 538.46" stroke="hsl(228.5, 89.2%, 56.8%)" stroke-width="1.5"></path><path d="M539.97 538.46L539.97 538.46" stroke="hsl(228.5, 89.2%, 56.8%)" stroke-width="1.5"></path><path d="M539.97 538.46L700.48 493.06" stroke="hsl(228.5, 89.2%, 56.8%)" stroke-width="1.5"></path><path d="M539.97 538.46L644.26 393.32" stroke="hsl(228.5, 89.2%, 56.8%)" stroke-width="1.5"></path><path d="M539.97 538.46L702.01 640.25" stroke="hsl(228.5, 89.2%, 56.8%)" stroke-width="1.5"></path><path d="M539.97 538.46L813.42 522.32" stroke="hsl(228.5, 89.2%, 56.8%)" stroke-width="1.5"></path><path d="M644.26 393.32L644.26 393.32" stroke="hsl(228.5, 89.2%, 56.8%)" stroke-width="1.5"></path><path d="M644.26 393.32L700.48 493.06" stroke="hsl(228.5, 89.2%, 56.8%)" stroke-width="1.5"></path><path d="M644.26 393.32L702.01 640.25" stroke="hsl(228.5, 89.2%, 56.8%)" stroke-width="1.5"></path><path d="M700.48 493.06L700.48 493.06" stroke="hsl(228.5, 89.2%, 56.8%)" stroke-width="1.5"></path><path d="M700.48 493.06L702.01 640.25" stroke="hsl(228.5, 89.2%, 56.8%)" stroke-width="1.5"></path><path d="M702.01 640.25L702.01 640.25" stroke="hsl(228.5, 89.2%, 56.8%)" stroke-width="1.5"></path><path d="M702.01 640.25L809.59 668.47" stroke="hsl(228.5, 89.2%, 56.8%)" stroke-width="1.5"></path><path d="M809.59 668.47L809.59 668.47" stroke="hsl(228.5, 89.2%, 56.8%)" stroke-width="1.5"></path><path d="M809.59 668.47L964.12 709.25" stroke="hsl(228.5, 89.2%, 56.8%)" stroke-width="1.5"></path><path d="M809.59 668.47L700.48 493.06" stroke="hsl(228.5, 89.2%, 56.8%)" stroke-width="1.5"></path><path d="M809.59 668.47L977.45 524.94" stroke="hsl(228.5, 89.2%, 56.8%)" stroke-width="1.5"></path><path d="M994.09 371.77L994.09 371.77" stroke="hsl(228.5, 89.2%, 56.8%)" stroke-width="1.5"></path><path d="M994.09 371.77L977.45 524.94" stroke="hsl(228.5, 89.2%, 56.8%)" stroke-width="1.5"></path><path d="M994.09 371.77L1114.59 531.75" stroke="hsl(228.5, 89.2%, 56.8%)" stroke-width="1.5"></path><path d="M994.09 371.77L1139.33 217.7" stroke="hsl(228.5, 89.2%, 56.8%)" stroke-width="1.5"></path><path d="M994.09 371.77L813.42 522.32" stroke="hsl(228.5, 89.2%, 56.8%)" stroke-width="1.5"></path><path d="M994.09 371.77L1275.45 358.1" stroke="hsl(228.5, 89.2%, 56.8%)" stroke-width="1.5"></path><path d="M994.09 371.77L1124.63 104.37" stroke="hsl(228.5, 89.2%, 56.8%)" stroke-width="1.5"></path><path d="M977.45 524.94L977.45 524.94" stroke="hsl(228.5, 89.2%, 56.8%)" stroke-width="1.5"></path><path d="M977.45 524.94L1114.59 531.75" stroke="hsl(228.5, 89.2%, 56.8%)" stroke-width="1.5"></path><path d="M964.12 709.25L964.12 709.25" stroke="hsl(228.5, 89.2%, 56.8%)" stroke-width="1.5"></path><path d="M964.12 709.25L977.45 524.94" stroke="hsl(228.5, 89.2%, 56.8%)" stroke-width="1.5"></path><path d="M964.12 709.25L1114.59 531.75" stroke="hsl(228.5, 89.2%, 56.8%)" stroke-width="1.5"></path><path d="M964.12 709.25L813.42 522.32" stroke="hsl(228.5, 89.2%, 56.8%)" stroke-width="1.5"></path><path d="M964.12 709.25L702.01 640.25" stroke="hsl(228.5, 89.2%, 56.8%)" stroke-width="1.5"></path><path d="M1124.63 104.37L1124.63 104.37" stroke="hsl(228.5, 89.2%, 56.8%)" stroke-width="1.5"></path><path d="M1124.63 104.37L1139.33 217.7" stroke="hsl(228.5, 89.2%, 56.8%)" stroke-width="1.5"></path><path d="M1124.63 104.37L1258.93 78.59" stroke="hsl(228.5, 89.2%, 56.8%)" stroke-width="1.5"></path><path d="M1124.63 104.37L1310.37 213.98" stroke="hsl(228.5, 89.2%, 56.8%)" stroke-width="1.5"></path><path d="M1124.63 104.37L1275.45 358.1" stroke="hsl(228.5, 89.2%, 56.8%)" stroke-width="1.5"></path><path d="M1139.33 217.7L1139.33 217.7" stroke="hsl(228.5, 89.2%, 56.8%)" stroke-width="1.5"></path><path d="M1139.33 217.7L1310.37 213.98" stroke="hsl(228.5, 89.2%, 56.8%)" stroke-width="1.5"></path><path d="M1139.33 217.7L1258.93 78.59" stroke="hsl(228.5, 89.2%, 56.8%)" stroke-width="1.5"></path><path d="M1139.33 217.7L1275.45 358.1" stroke="hsl(228.5, 89.2%, 56.8%)" stroke-width="1.5"></path><path d="M1114.59 531.75L1114.59 531.75" stroke="hsl(228.5, 89.2%, 56.8%)" stroke-width="1.5"></path><path d="M1114.59 531.75L1248.02 547.5" stroke="hsl(228.5, 89.2%, 56.8%)" stroke-width="1.5"></path><path d="M1258.93 78.59L1258.93 78.59" stroke="hsl(228.5, 89.2%, 56.8%)" stroke-width="1.5"></path><path d="M1310.37 213.98L1310.37 213.98" stroke="hsl(228.5, 89.2%, 56.8%)" stroke-width="1.5"></path><path d="M1310.37 213.98L1442.18 213.04" stroke="hsl(228.5, 89.2%, 56.8%)" stroke-width="1.5"></path><path d="M1310.37 213.98L1258.93 78.59" stroke="hsl(228.5, 89.2%, 56.8%)" stroke-width="1.5"></path><path d="M1275.45 358.1L1275.45 358.1" stroke="hsl(228.5, 89.2%, 56.8%)" stroke-width="1.5"></path><path d="M1275.45 358.1L1414.33 382.23" stroke="hsl(228.5, 89.2%, 56.8%)" stroke-width="1.5"></path><path d="M1275.45 358.1L1310.37 213.98" stroke="hsl(228.5, 89.2%, 56.8%)" stroke-width="1.5"></path><path d="M1275.45 358.1L1393.89 501.36" stroke="hsl(228.5, 89.2%, 56.8%)" stroke-width="1.5"></path><path d="M1275.45 358.1L1248.02 547.5" stroke="hsl(228.5, 89.2%, 56.8%)" stroke-width="1.5"></path><path d="M1248.02 547.5L1248.02 547.5" stroke="hsl(228.5, 89.2%, 56.8%)" stroke-width="1.5"></path><path d="M1248.02 547.5L1289.87 691.29" stroke="hsl(228.5, 89.2%, 56.8%)" stroke-width="1.5"></path><path d="M1248.02 547.5L1393.89 501.36" stroke="hsl(228.5, 89.2%, 56.8%)" stroke-width="1.5"></path><path d="M1289.87 691.29L1289.87 691.29" stroke="hsl(228.5, 89.2%, 56.8%)" stroke-width="1.5"></path><path d="M1394.64 -66.16L1394.64 -66.16" stroke="hsl(228.5, 89.2%, 56.8%)" stroke-width="1.5"></path><path d="M1394.64 -66.16L1459.31 55.46" stroke="hsl(228.5, 89.2%, 56.8%)" stroke-width="1.5"></path><path d="M1459.31 55.46L1459.31 55.46" stroke="hsl(228.5, 89.2%, 56.8%)" stroke-width="1.5"></path><path d="M1459.31 55.46L1442.18 213.04" stroke="hsl(228.5, 89.2%, 56.8%)" stroke-width="1.5"></path><path d="M1459.31 55.46L1601.5 -82.73" stroke="hsl(228.5, 89.2%, 56.8%)" stroke-width="1.5"></path><path d="M1459.31 55.46L1258.93 78.59" stroke="hsl(228.5, 89.2%, 56.8%)" stroke-width="1.5"></path><path d="M1459.31 55.46L1540.81 246.79" stroke="hsl(228.5, 89.2%, 56.8%)" stroke-width="1.5"></path><path d="M1459.31 55.46L1310.37 213.98" stroke="hsl(228.5, 89.2%, 56.8%)" stroke-width="1.5"></path><path d="M1442.18 213.04L1442.18 213.04" stroke="hsl(228.5, 89.2%, 56.8%)" stroke-width="1.5"></path><path d="M1442.18 213.04L1540.81 246.79" stroke="hsl(228.5, 89.2%, 56.8%)" stroke-width="1.5"></path><path d="M1414.33 382.23L1414.33 382.23" stroke="hsl(228.5, 89.2%, 56.8%)" stroke-width="1.5"></path><path d="M1414.33 382.23L1393.89 501.36" stroke="hsl(228.5, 89.2%, 56.8%)" stroke-width="1.5"></path><path d="M1414.33 382.23L1566.51 393.7" stroke="hsl(228.5, 89.2%, 56.8%)" stroke-width="1.5"></path><path d="M1393.89 501.36L1393.89 501.36" stroke="hsl(228.5, 89.2%, 56.8%)" stroke-width="1.5"></path><path d="M1393.89 501.36L1563.26 496.09" stroke="hsl(228.5, 89.2%, 56.8%)" stroke-width="1.5"></path><path d="M1393.89 501.36L1566.51 393.7" stroke="hsl(228.5, 89.2%, 56.8%)" stroke-width="1.5"></path><path d="M1601.5 -82.73L1601.5 -82.73" stroke="hsl(228.5, 89.2%, 56.8%)" stroke-width="1.5"></path><path d="M1601.5 -82.73L1394.64 -66.16" stroke="hsl(228.5, 89.2%, 56.8%)" stroke-width="1.5"></path><path d="M1601.5 -82.73L1540.81 246.79" stroke="hsl(228.5, 89.2%, 56.8%)" stroke-width="1.5"></path><path d="M1540.81 246.79L1540.81 246.79" stroke="hsl(228.5, 89.2%, 56.8%)" stroke-width="1.5"></path><path d="M1540.81 246.79L1566.51 393.7" stroke="hsl(228.5, 89.2%, 56.8%)" stroke-width="1.5"></path><path d="M1540.81 246.79L1414.33 382.23" stroke="hsl(228.5, 89.2%, 56.8%)" stroke-width="1.5"></path><path d="M1540.81 246.79L1310.37 213.98" stroke="hsl(228.5, 89.2%, 56.8%)" stroke-width="1.5"></path><path d="M1566.51 393.7L1566.51 393.7" stroke="hsl(228.5, 89.2%, 56.8%)" stroke-width="1.5"></path><path d="M1566.51 393.7L1563.26 496.09" stroke="hsl(228.5, 89.2%, 56.8%)" stroke-width="1.5"></path><path d="M1566.51 393.7L1442.18 213.04" stroke="hsl(228.5, 89.2%, 56.8%)" stroke-width="1.5"></path><path d="M1563.26 496.09L1563.26 496.09" stroke="hsl(228.5, 89.2%, 56.8%)" stroke-width="1.5"></path><path d="M1563.26 496.09L1562.08 649.19" stroke="hsl(228.5, 89.2%, 56.8%)" stroke-width="1.5"></path><path d="M1562.08 649.19L1562.08 649.19" stroke="hsl(228.5, 89.2%, 56.8%)" stroke-width="1.5"></path><path d="M1562.08 649.19L1393.89 501.36" stroke="hsl(228.5, 89.2%, 56.8%)" stroke-width="1.5"></path><path d="M1562.08 649.19L1566.51 393.7" stroke="hsl(228.5, 89.2%, 56.8%)" stroke-width="1.5"></path><circle r="25" cx="-47.43" cy="689.82" fill="url(#SvgjsRadialGradient1015)"></circle><circle r="25" cx="93.17" cy="673.05" fill="url(#SvgjsRadialGradient1015)"></circle><circle r="25" cx="195.16" cy="548.48" fill="url(#SvgjsRadialGradient1015)"></circle><circle r="25" cx="813.42" cy="522.32" fill="url(#SvgjsRadialGradient1015)"></circle><circle r="25" cx="1154.05" cy="679.54" fill="url(#SvgjsRadialGradient1015)"></circle><circle r="25" cx="1262.67" cy="-39.14" fill="url(#SvgjsRadialGradient1015)"></circle><circle r="25" cx="1410.29" cy="643.12" fill="url(#SvgjsRadialGradient1015)"></circle><circle r="5" cx="94.24" cy="493.46" fill="#8699e9"></circle><circle r="5" cx="233.41" cy="686.48" fill="#8699e9"></circle><circle r="5" cx="522.98" cy="400.81" fill="#8699e9"></circle><circle r="5" cx="539.97" cy="538.46" fill="#8699e9"></circle><circle r="5" cx="644.26" cy="393.32" fill="#8699e9"></circle><circle r="5" cx="700.48" cy="493.06" fill="#8699e9"></circle><circle r="5" cx="702.01" cy="640.25" fill="#8699e9"></circle><circle r="5" cx="809.59" cy="668.47" fill="#8699e9"></circle><circle r="5" cx="994.09" cy="371.77" fill="#8699e9"></circle><circle r="5" cx="977.45" cy="524.94" fill="#8699e9"></circle><circle r="5" cx="964.12" cy="709.25" fill="#8699e9"></circle><circle r="5" cx="1124.63" cy="104.37" fill="#8699e9"></circle><circle r="5" cx="1139.33" cy="217.7" fill="#8699e9"></circle><circle r="5" cx="1114.59" cy="531.75" fill="#8699e9"></circle><circle r="5" cx="1258.93" cy="78.59" fill="#8699e9"></circle><circle r="5" cx="1310.37" cy="213.98" fill="#8699e9"></circle><circle r="5" cx="1275.45" cy="358.1" fill="#8699e9"></circle><circle r="5" cx="1248.02" cy="547.5" fill="#8699e9"></circle><circle r="5" cx="1289.87" cy="691.29" fill="#8699e9"></circle><circle r="5" cx="1394.64" cy="-66.16" fill="#8699e9"></circle><circle r="5" cx="1459.31" cy="55.46" fill="#8699e9"></circle><circle r="5" cx="1442.18" cy="213.04" fill="#8699e9"></circle><circle r="5" cx="1414.33" cy="382.23" fill="#8699e9"></circle><circle r="5" cx="1393.89" cy="501.36" fill="#8699e9"></circle><circle r="5" cx="1601.5" cy="-82.73" fill="#8699e9"></circle><circle r="5" cx="1540.81" cy="246.79" fill="#8699e9"></circle><circle r="5" cx="1566.51" cy="393.7" fill="#8699e9"></circle><circle r="5" cx="1563.26" cy="496.09" fill="#8699e9"></circle><circle r="5" cx="1562.08" cy="649.19" fill="#8699e9"></circle></g><defs><mask id="SvgjsMask1014"><rect width="1440" height="560" fill="#ffffff"></rect></mask><radialGradient id="SvgjsRadialGradient1015"><stop stop-color="#ffffff" offset="0.1"></stop><stop stop-color="rgba(12, 50, 211, 1)" offset="0.2"></stop><stop stop-color="rgba(12, 50, 211, 0)" offset="1"></stop></radialGradient></defs></svg>