<svg xmlns="http://www.w3.org/2000/svg" version="1.1" xmlns:xlink="http://www.w3.org/1999/xlink" xmlns:svgjs="http://svgjs.com/svgjs" width="1440" height="560" preserveAspectRatio="none" viewBox="0 0 1440 560"><g mask="url(&quot;#SvgjsMask1005&quot;)" fill="none"><path d="M -529.301872388793,257 C -433.3,296.2 -241.3,450.6 -49.30187238879295,453 C 142.7,455.4 238.7,287 430.69812761120704,269 C 622.7,251 718.7,372.4 910.698127611207,363 C 1102.7,353.6 1284.84,199.8 1390.6981276112072,222 C 1496.56,244.2 1430.14,423.6 1440,474" stroke="rgba(6, 55, 213, 1)" stroke-width="2"></path><path d="M -790.0216365318909,279 C -694.02,280.6 -502.02,304 -310.0216365318909,287 C -118.02,270 -22.02,191.8 169.97836346810908,194 C 361.98,196.2 457.98,294.6 649.9783634681091,298 C 841.98,301.4 971.97,200.6 1129.9783634681091,211 C 1287.98,221.4 1378,322.2 1440,350" stroke="rgba(6, 55, 213, 1)" stroke-width="2"></path><path d="M -188.30280971851613,328 C -92.3,281.2 99.7,66.2 291.69719028148387,94 C 483.7,121.8 579.7,472 771.6971902814839,467 C 963.7,462 1059.7,96.6 1251.697190281484,69 C 1443.7,41.4 1694.04,309.2 1731.697190281484,329 C 1769.36,348.8 1498.34,200.2 1440,168" stroke="rgba(6, 55, 213, 1)" stroke-width="2"></path><path d="M -496.171873888086,353 C -400.17,310.4 -208.17,122.4 -16.171873888086026,140 C 175.83,157.6 271.83,421.4 463.828126111914,441 C 655.83,460.6 751.83,256.8 943.828126111914,238 C 1135.83,219.2 1324.59,357.8 1423.828126111914,347 C 1523.06,336.2 1436.77,216.6 1440,184" stroke="rgba(6, 55, 213, 1)" stroke-width="2"></path></g><defs><mask id="SvgjsMask1005"><rect width="1440" height="560" fill="#ffffff"></rect></mask></defs></svg>